# xmcd
#
# Track frame offsets:
#	150
#	16321
#	31819
#	47053
#	62507
#	80415
#	97802
#	112707
#	130006
#	141850
#
# Disc length: 2114 seconds
#
# Revision: 1
# Processed by: cddbd v1.5.1PL2 Copyright (c) Steve Scherf et al.
# Submitted via: audiograbber 1.83.01
#
DISCID=6e08400a
DTITLE=Chantal Hamel - Pourtant j'ai voulu changer
DYEAR=2006
DGENRE=Québécois
TTITLE0=La saison de l'amour
TTITLE1=Pourtant j'ai voulu changer
TTITLE2=Le ciel si bleu
TTITLE3=Frapper a ma porte
TTITLE4=La porte de son coeur
TTITLE5=Pourquoi mon Dieu
TTITLE6=La vierge belle
TTITLE7=Pourquoi m'avoir abandonne
TTITLE8=Dans le bas du fleuve
TTITLE9=N'abandonne pas
EXTD=
EXTT0=
EXTT1=
EXTT2=
EXTT3=
EXTT4=
EXTT5=
EXTT6=
EXTT7=
EXTT8=
EXTT9=
PLAYORDER=
